<?xml version="1.0" encoding="UTF-8"?>
<svg width="75px" height="73px" viewBox="0 0 75 73" version="1.1" xmlns="http://www.w3.org/2000/svg" xmlns:xlink="http://www.w3.org/1999/xlink">
    <!-- Generator: Sketch 53.1 (72631) - https://sketchapp.com -->
    <desc>Created with Sketch.</desc>
    <defs>
        <linearGradient x1="0%" y1="23.789769%" x2="100.567466%" y2="75.9908571%" id="linearGradient-1">
            <stop stop-color="#0034DA" offset="0%"></stop>
            <stop stop-color="#DB00FF" offset="100%"></stop>
        </linearGradient>
        <linearGradient x1="0%" y1="10.2029596%" x2="101.999998%" y2="90.5929804%" id="linearGradient-2">
            <stop stop-color="#0034DA" offset="0%"></stop>
            <stop stop-color="#DB00FF" offset="98.5955564%"></stop>
        </linearGradient>
    </defs>
    <g id="Yura-agency" stroke="none" stroke-width="1" fill="none" fill-rule="evenodd">
        <g id="investigate">
            <path d="M51.8709677,0.7446 L31.2387097,9.26613333 L31.2266129,9.26613333 L30.0774194,9.06781667 L30.0774194,9.07998333 L8.97701613,0.7446 L0.193548387,52.0575167 L15.2806452,54.4969333 C15.1524194,53.6099833 15.0834677,52.6999167 15.0834677,51.7776833 L15.0834677,51.55625 L3.48991935,49.6886667 L11.3104839,4.04785 L29.5802419,11.8917 L28.2096774,20.075 C28.2326613,20.0871667 28.2556452,20.0981167 28.2907258,20.1102833 L25.7141129,34.5022333 C26.55,34.0824833 27.4197581,33.7199167 28.3137097,33.4279167 L30.5419355,20.9729 L30.4717742,20.9145 L31.9693548,12.0437833 L50.4314516,4.06001667 L44.9334677,35.7395833 C45.6762097,36.2420667 46.383871,36.7895667 47.0576613,37.3857333 L52.8810484,3.81546667 L71.5100806,10.4219667 L64.616129,51.4625667 L53.3237903,49.5597 C53.4169355,50.2836167 53.4629032,51.03065 53.4629032,51.7776833 C53.4629032,52.0112833 53.4629032,52.2448833 53.4508065,52.4784833 L66.9483871,54.7658167 L74.8064516,8.0519 L51.8709677,0.7446 Z" id="Path" fill="url(#linearGradient-1)"></path>
            <path d="M58.4467742,66.9495167 C56.9141129,65.7267667 55.3754032,64.5052333 53.8427419,63.2885667 C52.1576613,61.9551 50.4774194,60.62285 48.7741935,59.2784333 C53.0491935,50.9321 49.8181452,41.6513667 42.8866935,37.3881667 C35.9491935,33.1201 26.8754032,34.5934833 21.7209677,40.8337667 C16.4443548,47.2091 16.6403226,56.3730333 22.1056452,62.5269333 C27.5104839,68.6139167 37.7637097,70.2965667 45.2745968,63.7861833 C45.4028226,63.9273167 45.5370968,64.1110333 45.7076613,64.2460833 C48.7608871,66.6842833 51.8141129,69.1164 54.8794355,71.5424333 C56.253629,72.6301333 58.0366935,72.4512833 59.0685484,71.1372833 C60.0895161,69.8366667 59.8270161,68.0554667 58.4467742,66.9495167 Z M35.3008065,63.9674667 C28.8967742,64.49915 22.728629,59.9208333 21.896371,52.9469 C21.0580645,45.9109167 26.0552419,39.7363333 33.1004032,38.9613167 C39.7693548,38.2252333 45.9362903,43.26345 46.6790323,50.03785 C47.5125,56.8475333 42.4705645,63.3737333 35.3008065,63.9674667 Z" id="Shape" fill="url(#linearGradient-2)" fill-rule="nonzero"></path>
        </g>
    </g>
</svg>