<?xml version="1.0" encoding="UTF-8"?>
<svg width="60px" height="61px" viewBox="0 0 60 61" version="1.1" xmlns="http://www.w3.org/2000/svg" xmlns:xlink="http://www.w3.org/1999/xlink">
    <!-- Generator: Sketch 53.1 (72631) - https://sketchapp.com -->
    <desc>Created with Sketch.</desc>
    <defs>
        <linearGradient x1="28.799351%" y1="0%" x2="108.538399%" y2="116.033794%" id="linearGradient-1">
            <stop stop-color="#0034DA" offset="0%"></stop>
            <stop stop-color="#DB00FF" offset="100%"></stop>
        </linearGradient>
        <linearGradient x1="18.8308888%" y1="0%" x2="136.062925%" y2="116.033794%" id="linearGradient-2">
            <stop stop-color="#0034DA" offset="0%"></stop>
            <stop stop-color="#DB00FF" offset="100%"></stop>
        </linearGradient>
        <linearGradient x1="0%" y1="30.306409%" x2="188.058036%" y2="76.0088505%" id="linearGradient-3">
            <stop stop-color="#0034DA" offset="0%"></stop>
            <stop stop-color="#DB00FF" offset="100%"></stop>
        </linearGradient>
        <linearGradient x1="0%" y1="37.0461632%" x2="188.058036%" y2="67.1078197%" id="linearGradient-4">
            <stop stop-color="#0034DA" offset="0%"></stop>
            <stop stop-color="#DB00FF" offset="100%"></stop>
        </linearGradient>
        <linearGradient x1="32.7005527%" y1="0%" x2="97.7665544%" y2="116.033794%" id="linearGradient-5">
            <stop stop-color="#0034DA" offset="0%"></stop>
            <stop stop-color="#DB00FF" offset="100%"></stop>
        </linearGradient>
    </defs>
    <g id="Yura-agency" stroke="none" stroke-width="1" fill="none" fill-rule="evenodd">
        <g id="execute">
            <path d="M28,45 L28,4 C28,3.447 27.553,3 27,3 L11,3 C10.734,3 10.48,3.105 10.293,3.293 L0.293,13.293 C0.105,13.48 0,13.734 0,14 L0,45 C0,45.553 0.447,46 1,46 L27,46 C27.553,46 28,45.553 28,45 Z M10,6.414 L10,13 L3.414,13 L10,6.414 Z M26,44 L2,44 L2,15 L11,15 C11.553,15 12,14.553 12,14 L12,5 L26,5 L26,44 Z" id="Shape" fill="url(#linearGradient-1)" fill-rule="nonzero"></path>
            <path d="M12,18 C11.621,18 11.275,18.214 11.105,18.553 L7.105,26.553 C6.95,26.863 6.966,27.231 7.149,27.526 C7.332,27.821 7.653,28 8,28 L11.753,28 L10.024,35.783 C9.924,36.233 10.145,36.694 10.559,36.897 C10.7,36.967 10.851,37 11,37 C11.289,37 11.573,36.874 11.769,36.641 L21.769,24.641 C22.017,24.342 22.071,23.927 21.906,23.577 C21.741,23.225 21.388,23 21,23 L19.081,23 L21.781,19.625 C22.021,19.324 22.067,18.913 21.901,18.566 C21.734,18.221 21.385,18 21,18 L12,18 Z M16.099,24.434 C16.266,24.779 16.615,25 17,25 L18.865,25 L12.87,32.193 L13.976,27.216 C14.041,26.92 13.969,26.611 13.78,26.373 C13.59,26.138 13.304,26 13,26 L9.618,26 L12.618,20 L18.919,20 L16.219,23.375 C15.979,23.676 15.933,24.087 16.099,24.434 Z" id="Shape" fill="url(#linearGradient-2)" fill-rule="nonzero"></path>
            <path d="M31.076,4.617 C30.921,4.991 31.007,5.421 31.293,5.707 L35.293,9.707 L36.707,8.293 L34.414,6 L44,6 L44,8 L46,8 L46,5 C46,4.447 45.553,4 45,4 L34.414,4 L36.707,1.707 L35.293,0.293 L31.293,4.293 L31.299,4.299 C31.208,4.391 31.127,4.493 31.076,4.617 Z" id="Path" fill="url(#linearGradient-3)"></path>
            <path d="M32.707,50.293 L31.293,51.707 L33.586,54 L16,54 L16,48 L14,48 L14,55 C14,55.553 14.447,56 15,56 L33.586,56 L31.293,58.293 L32.707,59.707 L36.707,55.707 L36.701,55.701 C36.792,55.61 36.873,55.507 36.924,55.383 C37.079,55.009 36.993,54.579 36.707,54.293 L32.707,50.293 Z" id="Path" fill="url(#linearGradient-4)"></path>
            <path d="M44.277,10.017 C36.834,10.368 30.722,16.218 30.061,23.627 C29.571,29.123 32.117,34.432 36.707,37.482 C37.517,38.02 38,38.939 38,39.942 L38,42 C38,43.065 38.562,43.997 39.401,44.529 C39.153,44.966 39,45.463 39,46 C39,46.771 39.301,47.468 39.78,48 C39.3,48.532 39,49.229 39,50 C39,50.771 39.301,51.468 39.78,52 C39.3,52.532 39,53.229 39,54 C39,55.654 40.346,57 42,57 L42,58 C42,59.654 43.346,61 45,61 C46.654,61 48,59.654 48,58 L48,57 C49.654,57 51,55.654 51,54 C51,53.229 50.699,52.532 50.22,52 C50.7,51.468 51,50.771 51,50 C51,49.229 50.699,48.532 50.22,48 C50.7,47.468 51,46.771 51,46 C51,45.463 50.847,44.966 50.599,44.529 C51.438,43.997 52,43.065 52,42 L52,39.942 C52,38.94 52.487,38.018 53.305,37.474 C57.497,34.683 60,30.02 60,25 C60,20.859 58.35,17.005 55.353,14.146 C52.357,11.288 48.413,9.821 44.277,10.017 Z M42,27 L40.138,27 C39.122,27 38.222,26.321 38.042,25.421 C37.906,24.735 38.104,24.067 38.587,23.585 C38.968,23.204 39.468,23 39.999,23 C40.138,23 40.278,23.015 40.421,23.042 C41.321,23.222 42,24.122 42,25.138 L42,27 Z M49,46 C49,46.552 48.552,47 48,47 L42,47 C41.448,47 41,46.552 41,46 C41,45.448 41.448,45 42,45 L43,45 L47,45 L48,45 C48.552,45 49,45.448 49,46 Z M49,50 C49,50.552 48.552,51 48,51 L42,51 C41.448,51 41,50.552 41,50 C41,49.448 41.448,49 42,49 L48,49 C48.552,49 49,49.448 49,50 Z M46,43 L44,43 L44,29 L46,29 L46,43 Z M46,58 C46,58.552 45.552,59 45,59 C44.448,59 44,58.552 44,58 L44,57 L46,57 L46,58 Z M48,55 L47,55 L43,55 L42,55 C41.448,55 41,54.552 41,54 C41,53.448 41.448,53 42,53 L48,53 C48.552,53 49,53.448 49,54 C49,54.552 48.552,55 48,55 Z M52.196,35.81 C50.821,36.725 50,38.27 50,39.942 L50,42 C50,42.552 49.552,43 49,43 L48,43 L48,29 L50,29 C51.185,29 52.302,28.479 53.064,27.571 C53.826,26.663 54.144,25.465 53.937,24.283 C53.653,22.671 52.329,21.346 50.716,21.062 C49.53,20.857 48.335,21.173 47.428,21.935 C46.521,22.698 46,23.815 46,25 L46,27 L44,27 L44,25.138 C44,23.155 42.658,21.449 40.811,21.081 C39.476,20.811 38.12,21.225 37.173,22.171 C36.225,23.118 35.817,24.479 36.081,25.81 C36.448,27.659 38.154,29 40.138,29 L42,29 L42,43 L41,43 C40.448,43 40,42.552 40,42 L40,39.942 C40,38.268 39.183,36.726 37.814,35.816 C33.835,33.171 31.627,28.569 32.053,23.804 C32.625,17.386 37.921,12.318 44.37,12.014 C44.583,12.005 44.795,12 45.006,12 C48.366,12 51.53,13.263 53.973,15.593 C56.569,18.07 58,21.411 58,25 C58,29.349 55.83,33.39 52.196,35.81 Z M48,27 L48,25 C48,24.407 48.261,23.849 48.715,23.468 C49.176,23.08 49.763,22.924 50.371,23.033 C51.157,23.171 51.829,23.843 51.967,24.629 C52.074,25.236 51.92,25.824 51.532,26.285 C51.151,26.739 50.593,27 50,27 L48,27 Z" id="Shape" fill="url(#linearGradient-5)" fill-rule="nonzero"></path>
        </g>
    </g>
</svg>