<?xml version="1.0" encoding="UTF-8"?>
<svg width="59px" height="71px" viewBox="0 0 59 71" version="1.1" xmlns="http://www.w3.org/2000/svg" xmlns:xlink="http://www.w3.org/1999/xlink">
    <!-- Generator: Sketch 53.1 (72631) - https://sketchapp.com -->
    <desc>Created with Sketch.</desc>
    <defs>
        <linearGradient x1="14.6915028%" y1="0%" x2="85.7092244%" y2="99.581511%" id="linearGradient-1">
            <stop stop-color="#0034DA" offset="0%"></stop>
            <stop stop-color="#DB00FF" offset="100%"></stop>
        </linearGradient>
    </defs>
    <g id="Yura-agency" stroke="none" stroke-width="1" fill="none" fill-rule="evenodd">
        <g id="ideate" fill="url(#linearGradient-1)" fill-rule="nonzero">
            <path d="M29.3255912,0.00749800427 C28.9653011,0.0529237615 28.6312946,0.220022396 28.3788007,0.481163735 L20.4058277,8.45869182 C19.9303607,8.84206096 19.7154234,9.46342726 19.8523126,10.0588591 C19.9892018,10.6542909 20.4538809,11.1192355 21.0489728,11.2562029 C21.6440646,11.3931703 22.2650761,11.1781102 22.6482264,10.7023716 L27.9054054,5.44218902 L27.9054054,12.7715429 C27.9054054,18.9996207 23.0016643,24.0684463 17.6402027,29.1753351 C14.9594715,31.7287791 12.2020037,34.2517354 10.0658784,37.0032845 C7.92975308,39.7548337 6.37837838,42.8169687 6.37837838,46.2771609 L6.37837838,54.4291974 C2.7542667,55.176431 0,58.3936197 0,62.2322171 C0,66.6191866 3.58850916,70.2097452 7.97297297,70.2097452 C12.3574368,70.2097452 15.9459459,66.6191866 15.9459459,62.2322171 C15.9459459,58.3936197 13.1916792,55.176431 9.56756757,54.4291974 L9.56756757,46.2771609 C9.56756757,43.7781117 10.7070712,41.4203804 12.6072635,38.9727368 C14.5074558,36.5250931 17.1317447,34.0665801 19.8327703,31.4938042 C25.2348222,26.3482531 31.0945946,20.6264588 31.0945946,12.7715429 L31.0945946,5.44218902 L36.3517736,10.7023716 C36.7349239,11.1781102 37.3559354,11.3931703 37.9510272,11.2562029 C38.5461191,11.1192355 39.0107982,10.6542909 39.1476874,10.0588591 C39.2845766,9.46342726 39.0696393,8.84206096 38.5941723,8.45869182 L30.6211993,0.481163735 C30.2834402,0.134895921 29.8068976,-0.0393248812 29.3255912,0.00749800427 Z M51.027027,11.1760373 C46.6425632,11.1760373 43.0540541,14.7665959 43.0540541,19.1535654 C43.0540541,23.5405342 46.6425632,27.1310935 51.027027,27.1310935 C55.4114908,27.1310935 59,23.5405342 59,19.1535654 C59,14.7665959 55.4114908,11.1760373 51.027027,11.1760373 Z M2.21748311,11.9488604 C1.59678013,12.0093024 1.06824045,12.4262141 0.86461082,13.0160051 C0.660981194,13.605796 0.819629073,14.2602355 1.27069257,14.6911356 L5.73057432,19.1535654 L1.27069257,23.6159952 C0.795225589,23.9993643 0.580288303,24.6207306 0.717177499,25.2161625 C0.854066695,25.8115943 1.31874579,26.2765389 1.91383763,26.4135063 C2.50892947,26.5504737 3.12994098,26.3354136 3.51309122,25.859675 L7.97297297,21.3972452 L12.4328547,25.859675 C12.816005,26.3354136 13.4370165,26.5504737 14.0321083,26.4135063 C14.6272002,26.2765389 15.0918793,25.8115943 15.2287684,25.2161625 C15.3656576,24.6207306 15.1507204,23.9993643 14.6752534,23.6159952 L10.2153716,19.1535654 L14.6752534,14.6911356 C15.1473439,14.2343452 15.2913007,13.5346948 15.0379319,12.9284667 C14.7845631,12.3222386 14.1856826,11.9334066 13.5291385,11.9488604 C13.11263,11.9653181 12.7191159,12.1442903 12.4328547,12.4474559 L7.97297297,16.9098856 L3.51309122,12.4474559 C3.21475935,12.13216 2.80089946,11.9521182 2.36697635,11.9488604 C2.31717267,11.9465221 2.26728679,11.9465221 2.21748311,11.9488604 Z M51.027027,14.3670486 C53.6879254,14.3670486 55.8108108,16.491146 55.8108108,19.1535654 C55.8108108,21.815984 53.6879254,23.9400823 51.027027,23.9400823 C48.3661286,23.9400823 46.2432432,21.815984 46.2432432,19.1535654 C46.2432432,16.491146 48.3661286,14.3670486 51.027027,14.3670486 Z M29.5,32.7153632 C25.1155362,32.7153632 21.527027,36.3059217 21.527027,40.6928913 C21.527027,45.07986 25.1155362,48.6704194 29.5,48.6704194 C33.8844638,48.6704194 37.472973,45.07986 37.472973,40.6928913 C37.472973,36.3059217 33.8844638,32.7153632 29.5,32.7153632 Z M29.5,35.9063744 C32.1608984,35.9063744 34.2837838,38.0304718 34.2837838,40.6928913 C34.2837838,43.3553099 32.1608984,45.4794081 29.5,45.4794081 C26.8391016,45.4794081 24.7162162,43.3553099 24.7162162,40.6928913 C24.7162162,38.0304718 26.8391016,35.9063744 29.5,35.9063744 Z M45.2715372,55.027512 C44.6508342,55.0879541 44.1222945,55.5048658 43.9186649,56.0946568 C43.7150352,56.6844477 43.8736831,57.3388872 44.3247466,57.7697873 L48.7846284,62.2322171 L44.3247466,66.6946469 C43.8492796,67.078016 43.6343424,67.6993823 43.7712316,68.2948141 C43.9081207,68.890246 44.3727998,69.3551906 44.9678917,69.492158 C45.5629835,69.6291254 46.183995,69.4140653 46.5671453,68.9383267 L51.027027,64.4758969 L55.4869088,68.9383267 C55.870059,69.4140653 56.4910705,69.6291254 57.0861624,69.492158 C57.6812542,69.3551906 58.1459333,68.890246 58.2828225,68.2948141 C58.4197117,67.6993823 58.2047744,67.078016 57.7293074,66.6946469 L53.2694257,62.2322171 L57.7293074,57.7697873 C58.201398,57.3129969 58.3453548,56.6133465 58.0919859,56.0071184 C57.8386171,55.4008902 57.2397367,55.0120583 56.5831926,55.027512 C56.166684,55.0439697 55.77317,55.2229419 55.4869088,55.5261076 L51.027027,59.9885373 L46.5671453,55.5261076 C46.2688134,55.2108117 45.8549535,55.0307698 45.4210304,55.027512 C45.3712267,55.0251738 45.3213408,55.0251738 45.2715372,55.027512 Z M7.97297297,57.4457003 C10.6338714,57.4457003 12.7567568,59.5697985 12.7567568,62.2322171 C12.7567568,64.8946365 10.6338714,67.018734 7.97297297,67.018734 C5.31207457,67.018734 3.18918919,64.8946365 3.18918919,62.2322171 C3.18918919,59.5697985 5.31207457,57.4457003 7.97297297,57.4457003 Z" id="Shape"></path>
        </g>
    </g>
</svg>