<?xml version="1.0" encoding="UTF-8"?>
<svg width="58px" height="58px" viewBox="0 0 58 58" version="1.1" xmlns="http://www.w3.org/2000/svg" xmlns:xlink="http://www.w3.org/1999/xlink">
    <!-- Generator: Sketch 53.1 (72631) - https://sketchapp.com -->
    <desc>Created with Sketch.</desc>
    <defs>
        <linearGradient x1="0%" y1="0.41072187%" x2="100.567466%" y2="99.1742268%" id="linearGradient-1">
            <stop stop-color="#0034DA" offset="0%"></stop>
            <stop stop-color="#DB00FF" offset="100%"></stop>
        </linearGradient>
        <linearGradient x1="0%" y1="0.351245839%" x2="101.999998%" y2="100.641728%" id="linearGradient-2">
            <stop stop-color="#0034DA" offset="0%"></stop>
            <stop stop-color="#DB00FF" offset="98.5955564%"></stop>
        </linearGradient>
    </defs>
    <g id="Yura-agency" stroke="none" stroke-width="1" fill="none" fill-rule="evenodd">
        <g id="design">
            <path d="M53.1666667,9.63265306 L50.2195417,9.63265306 L52.12025,7.73863265 C52.7901679,7.0715235 53.166562,6.16645825 53.166562,5.22270408 C53.166562,4.27894991 52.7901679,3.37388467 52.12025,2.70677551 L50.4503333,1.04273469 C49.0373678,-0.301407397 46.8136739,-0.301407397 45.4007083,1.04273469 L36.7804583,9.63265306 L8.45833333,9.63265306 C6.45630112,9.63265306 4.83333333,11.2499102 4.83333333,13.244898 L4.83333333,22.0346939 L0.354041667,26.4982245 C-0.117669842,26.9684182 -0.117669842,27.7306022 0.354041667,28.2007959 L4.83333333,32.6643265 L4.83333333,44.5510204 C4.83333333,46.5460082 6.45630112,48.1632653 8.45833333,48.1632653 L20.387,48.1632653 L29.699625,57.4431224 C30.171479,57.9131742 30.9363543,57.9131742 31.4082083,57.4431224 L38.312625,50.563 C38.7843365,50.0928063 38.7843365,49.3306223 38.312625,48.8604286 L37.613,48.1632653 L48.3333333,48.1632653 L48.3333333,54.1836735 C48.3333333,54.8486694 48.8743226,55.3877551 49.5416667,55.3877551 L53.1666667,55.3877551 C55.836043,55.3877551 58,53.2314123 58,50.5714286 L58,14.4489796 C58,11.7889959 55.836043,9.63265306 53.1666667,9.63265306 Z M28.409125,22.4320408 L30.6554167,24.6704286 L27.285375,25.7902245 L28.409125,22.4320408 Z M29.5896667,20.2032857 L42.9151667,6.92587755 L46.2163333,10.2166327 L32.8920417,23.4940408 L29.5896667,20.2032857 Z M47.1105,2.74410204 C47.5668186,2.3095592 48.2854314,2.3095592 48.74175,2.74410204 L50.4116667,4.40934694 C50.6282333,4.62501546 50.7499107,4.91760646 50.7499107,5.22270408 C50.7499107,5.5278017 50.6282333,5.82039271 50.4116667,6.03606122 L47.9249167,8.51406122 L44.62375,5.22330612 L47.1105,2.74410204 Z M8.45833333,45.755102 C7.79098926,45.755102 7.25,45.2160163 7.25,44.5510204 L7.25,35.0724898 L17.9703333,45.755102 L8.45833333,45.755102 Z M30.5539167,54.8892653 L2.91691667,27.3495102 L8.11275,22.1719592 L11.4102917,25.457898 L8.812375,28.0466735 L10.5209583,29.7492449 L13.118875,27.1604694 L16.243625,30.2742245 L13.6457083,32.863 L15.3542917,34.5655714 L17.9522083,31.9767959 L21.0769583,35.090551 L18.4790417,37.6793265 L20.187625,39.381898 L22.7855417,36.7931224 L25.9102917,39.9068776 L23.312375,42.4956531 L25.0209583,44.1982245 L27.618875,41.609449 L30.743625,44.7232041 L28.1457083,47.3119796 L29.8542917,49.014551 L32.4522083,46.4257755 L35.74975,49.7117143 L30.5539167,54.8892653 Z M35.1963333,45.755102 L8.96704167,19.618102 C8.49518768,19.1480503 7.73031232,19.1480503 7.25845833,19.618102 L7.25,19.6265306 L7.25,13.244898 C7.25,12.579902 7.79098926,12.0408163 8.45833333,12.0408163 L34.3637917,12.0408163 L27.0267917,19.352 C26.8969319,19.4857585 26.8008456,19.6483654 26.7464583,19.8264082 L26.734375,19.8264082 L24.2282917,27.317 C24.1069959,27.6837589 24.1695886,28.086237 24.3965949,28.399209 C24.6236012,28.7121811 24.9874742,28.8976684 25.375,28.8979592 L43.5,28.8979592 L43.5,26.4897959 L32.82075,26.4897959 L33.273875,26.3392857 L33.273875,26.3272449 C33.4525464,26.273049 33.6157276,26.1773008 33.7499583,26.047898 L47.802875,12.0408163 L53.1666667,12.0408163 C54.5013548,12.0408163 55.5833333,13.1189877 55.5833333,14.4489796 L55.5833333,46.4245714 C54.8518729,45.9911934 54.0176393,45.7600925 53.1666667,45.755102 L35.1963333,45.755102 Z M53.1666667,52.9795918 L50.75,52.9795918 L50.75,48.1632653 L53.1666667,48.1632653 C54.5013548,48.1632653 55.5833333,49.2414367 55.5833333,50.5714286 C55.5833333,51.9014204 54.5013548,52.9795918 53.1666667,52.9795918 Z" id="Shape" fill="url(#linearGradient-1)" fill-rule="nonzero"></path>
            <rect id="Rectangle" fill="url(#linearGradient-2)" x="45.9166667" y="26.4897959" width="2.41666667" height="2.40816327"></rect>
            <rect id="Rectangle" fill="url(#linearGradient-2)" x="50.75" y="26.4897959" width="2.41666667" height="2.40816327"></rect>
        </g>
    </g>
</svg>