<?xml version="1.0" encoding="UTF-8"?>
<svg width="120px" height="43px" viewBox="0 0 120 43" version="1.1" xmlns="http://www.w3.org/2000/svg" xmlns:xlink="http://www.w3.org/1999/xlink">
    <!-- Generator: Sketch 53.1 (72631) - https://sketchapp.com -->
    <desc>Created with Sketch.</desc>
    <g id="Yura-agency" stroke="none" stroke-width="1" fill="none" fill-rule="evenodd">
        <g id="logo" fill="#0034DA">
            <polygon id="Path" points="24.370513 0.714285714 16.5045261 20.082371 7.79575486 0.714285714 0 0.714285714 18.9860576 42.8571429 26.8520445 42.8571429 20.6248049 29.2780425 32.1428571 0.714285714"></polygon>
            <path d="M36.4285714,0.714285714 L44.2687821,0.714285714 L44.2687821,15.4708159 C44.2687821,18.3322584 44.4594256,20.3423627 44.8645428,21.4538321 C45.2696601,22.5653015 45.9130817,23.4402881 46.7948075,24.0551435 C47.6765333,24.6699989 48.772733,24.9774266 50.0595761,24.9774266 C51.3464192,24.9774266 52.4426188,24.6699989 53.3481751,24.0551435 C54.2537313,23.4402881 54.9209833,22.5416532 55.349931,21.359239 C55.683557,20.4842524 55.8265396,18.5923896 55.8265396,15.7072987 L55.8265396,0.714285714 L63.5714286,0.714285714 L63.5714286,13.6971945 C63.5714286,19.041707 63.1424809,22.7071912 62.2845855,24.6699989 C61.2360467,27.082124 59.7108993,28.9266903 57.6853129,30.2036977 C55.6597266,31.4807051 53.0860404,32.1428571 49.9642544,32.1428571 C46.5803336,32.1428571 43.8398344,31.386112 41.7427568,29.89627 C39.6456792,28.3827797 38.1920231,26.3017306 37.3341277,23.6058261 C36.738367,21.7376115 36.4285714,18.379555 36.4285714,13.4607116 L36.4285714,0.714285714 L36.4285714,0.714285714 Z" id="Path"></path>
            <path d="M69.2857143,0.780981067 L75.8807811,0.780981067 L75.8807811,4.63855422 C76.5899281,3.12392427 77.5354573,1.96428571 78.717369,1.18330465 C79.8992806,0.40232358 81.1993834,0 82.5940391,0 C83.5868448,0 84.626927,0.260327022 85.7142857,0.780981067 L83.3504625,7.40748709 C82.4522097,6.95783133 81.7194245,6.7211704 81.1284687,6.7211704 C79.946557,6.7211704 78.9537513,7.45481928 78.1264132,8.92211704 C77.299075,10.3894148 76.8972251,13.253012 76.8972251,17.5365749 L76.9208633,19.0275387 L76.9208633,31.4285714 L69.2857143,31.4285714 L69.2857143,0.780981067 L69.2857143,0.780981067 Z" id="Path"></path>
            <path d="M104.367743,7.08512648 C102.024076,7.08512648 100.055396,7.91172457 98.5085757,9.61215493 C96.9617556,11.2889682 96.1649089,13.4381232 96.1649089,16.05962 C96.1649089,18.7047339 96.9617556,20.877506 98.555449,22.5779364 C100.149142,24.2783667 102.094386,25.1285819 104.414616,25.1285819 C106.805156,25.1285819 108.797273,24.3019838 110.36753,22.6015535 C111.937786,20.9247402 112.734633,18.728351 112.734633,16.0123859 C112.734633,13.3436549 111.937786,11.1944998 110.36753,9.54130366 C108.773836,7.91172457 106.781719,7.08512648 104.367743,7.08512648 L104.367743,7.08512648 Z M112.383083,0.779363913 L120,0.779363913 L120,31.3634932 L112.383083,31.3634932 L112.383083,28.1279521 C110.906573,29.5449774 109.406626,30.5841293 107.906679,31.1981736 C106.406733,31.835835 104.789603,32.1428571 103.031853,32.1428571 C99.1179291,32.1428571 95.7196122,30.6077464 92.8603388,27.5375249 C90.0010653,24.4673035 88.5714286,20.6649522 88.5714286,16.1068542 C88.5714286,11.3834365 89.954192,7.51023407 92.7197188,4.48724677 C95.4852456,1.51149365 98.8601257,0 102.820923,0 C104.648983,0 106.359859,0.354256324 107.953553,1.03915188 C109.547246,1.72404744 111.023756,2.76319933 112.383083,4.15660754 L112.383083,0.779363913 L112.383083,0.779363913 Z" id="Shape" fill-rule="nonzero"></path>
        </g>
    </g>
</svg>