<?xml version="1.0" encoding="UTF-8"?>
<svg width="84px" height="30px" viewBox="0 0 84 30" version="1.1" xmlns="http://www.w3.org/2000/svg" xmlns:xlink="http://www.w3.org/1999/xlink">
    <!-- Generator: Sketch 53.1 (72631) - https://sketchapp.com -->
    <desc>Created with Sketch.</desc>
    <g id="Yura-agency" stroke="none" stroke-width="1" fill="none" fill-rule="evenodd">
        <g id="logo" fill="#0034DA">
            <polygon id="Path" points="17.0593591 0.49833887 11.5531682 14.0109565 5.4570284 0.49833887 0 0.49833887 13.2902403 29.9003322 18.7964312 29.9003322 14.4373634 20.4265413 22.5 0.49833887"></polygon>
            <path d="M25.5,0.49833887 L30.9881475,0.49833887 L30.9881475,10.7935925 C30.9881475,12.7899477 31.1215979,14.1923461 31.40518,14.9677898 C31.6887621,15.7432336 32.1391572,16.3536894 32.7563652,16.7826583 C33.3735733,17.2116272 34.1409131,17.4261116 35.0417032,17.4261116 C35.9424934,17.4261116 36.7098332,17.2116272 37.3437226,16.7826583 C37.9776119,16.3536894 38.4446883,15.7267348 38.7449517,14.9017946 C38.9784899,14.2913389 39.0785777,12.9714346 39.0785777,10.9585805 L39.0785777,0.49833887 L44.5,0.49833887 L44.5,9.55618218 C44.5,13.2849118 44.1997366,15.8422264 43.5992098,17.2116272 C42.8652327,18.8945051 41.7976295,20.1814118 40.3797191,21.0723473 C38.9618086,21.9632827 37.1602283,22.4252492 34.9749781,22.4252492 C32.6062335,22.4252492 30.6878841,21.8972874 29.2199298,20.8578628 C27.7519754,19.8019394 26.7344162,18.3500446 26.1338894,16.469181 C25.7168569,15.1657755 25.5,12.8229453 25.5,9.39119414 L25.5,0.49833887 L25.5,0.49833887 Z" id="Path"></path>
            <path d="M48.5,0.544870512 L53.1165468,0.544870512 L53.1165468,3.23620062 C53.6129496,2.17948205 54.2748201,1.37043189 55.1021583,0.825561382 C55.9294964,0.28069087 56.8395683,0 57.8158273,0 C58.5107914,0 59.2388489,0.181623504 60,0.544870512 L58.3453237,5.16801425 C57.7165468,4.85430092 57.2035971,4.68918865 56.7899281,4.68918865 C55.9625899,4.68918865 55.2676259,5.2010367 54.6884892,6.22473282 C54.1093525,7.24842893 53.8280576,9.24628748 53.8280576,12.2348197 L53.8446043,13.275027 L53.8446043,21.9269103 L48.5,21.9269103 L48.5,0.544870512 L48.5,0.544870512 Z" id="Path"></path>
            <path d="M73.0574198,4.9431115 C71.4168531,4.9431115 70.038777,5.51980784 68.956003,6.7061546 C67.8732289,7.87602432 67.3154362,9.37543481 67.3154362,11.2043861 C67.3154362,13.0498144 67.8732289,14.5657019 68.9888143,15.7520486 C70.1043997,16.9383954 71.4660701,17.5315688 73.0902312,17.5315688 C74.7636092,17.5315688 76.158091,16.9548724 77.2572707,15.7685257 C78.3564504,14.598656 78.9142431,13.0662914 78.9142431,11.171432 C78.9142431,9.30952666 78.3564504,7.81011617 77.2572707,6.65672349 C76.1416853,5.51980784 74.7472036,4.9431115 73.0574198,4.9431115 L73.0574198,4.9431115 Z M78.6681581,0.543742265 L84,0.543742265 L84,21.8815069 L78.6681581,21.8815069 L78.6681581,19.6241527 C77.634601,20.612775 76.5846383,21.3377646 75.5346756,21.7661676 C74.4847129,22.2110477 73.3527218,22.4252492 72.1222968,22.4252492 C69.3825503,22.4252492 67.0037286,21.3542417 65.0022371,19.2122267 C63.0007457,17.0702117 62,14.4174085 62,11.2373401 C62,7.94193248 62.9679344,5.23969819 64.9038031,3.13063728 C66.8396719,1.05453045 69.202088,0 71.9746458,0 C73.2542878,0 74.4519016,0.247155575 75.567487,0.724989687 C76.6830723,1.2028238 77.7166294,1.92781348 78.6681581,2.89995875 L78.6681581,0.543742265 L78.6681581,0.543742265 Z" id="Shape" fill-rule="nonzero"></path>
        </g>
    </g>
</svg>