<?xml version="1.0" encoding="UTF-8"?>
<svg width="84px" height="32px" viewBox="0 0 84 32" version="1.1" xmlns="http://www.w3.org/2000/svg" xmlns:xlink="http://www.w3.org/1999/xlink">
    <!-- Generator: Sketch 53.1 (72631) - https://sketchapp.com -->
    <desc>Created with Sketch.</desc>
    <g id="Yura-agency" stroke="none" stroke-width="1" fill="none" fill-rule="evenodd">
        <g id="logo-white" fill="#FFFFFF">
            <polygon id="Path" points="17.0593591 0.531561462 11.5531682 14.9450203 5.4570284 0.531561462 0 0.531561462 13.2902403 31.8936877 18.7964312 31.8936877 14.4373634 21.7883107 22.5 0.531561462"></polygon>
            <path d="M25.5,0.531561462 L30.9881475,0.531561462 L30.9881475,11.5131653 C30.9881475,13.6426109 31.1215979,15.1385025 31.40518,15.9656425 C31.6887621,16.7927825 32.1391572,17.4439353 32.7563652,17.9015021 C33.3735733,18.359069 34.1409131,18.5878524 35.0417032,18.5878524 C35.9424934,18.5878524 36.7098332,18.359069 37.3437226,17.9015021 C37.9776119,17.4439353 38.4446883,16.7751838 38.7449517,15.8952476 C38.9784899,15.2440948 39.0785777,13.8361969 39.0785777,11.6891525 L39.0785777,0.531561462 L44.5,0.531561462 L44.5,10.193261 C44.5,14.1705726 44.1997366,16.8983749 43.5992098,18.359069 C42.8652327,20.1541388 41.7976295,21.5268393 40.3797191,22.4771704 C38.9618086,23.4275015 37.1602283,23.9202658 34.9749781,23.9202658 C32.6062335,23.9202658 30.6878841,23.3571066 29.2199298,22.248387 C27.7519754,21.1220687 26.7344162,19.5733809 26.1338894,17.5671264 C25.7168569,16.1768272 25.5,13.6778084 25.5,10.0172737 L25.5,0.531561462 L25.5,0.531561462 Z" id="Path"></path>
            <path d="M48.5,0.581195213 L53.1165468,0.581195213 L53.1165468,3.45194732 C53.6129496,2.32478085 54.2748201,1.46179402 55.1021583,0.880598807 C55.9294964,0.299403594 56.8395683,0 57.8158273,0 C58.5107914,0 59.2388489,0.193731738 60,0.581195213 L58.3453237,5.51254853 C57.7165468,5.17792099 57.2035971,5.00180122 56.7899281,5.00180122 C55.9625899,5.00180122 55.2676259,5.54777249 54.6884892,6.63971501 C54.1093525,7.73165753 53.8280576,9.86270664 53.8280576,13.0504743 L53.8446043,14.1600288 L53.8446043,23.3887043 L48.5,23.3887043 L48.5,0.581195213 L48.5,0.581195213 Z" id="Path"></path>
            <path d="M73.0574198,5.27265227 C71.4168531,5.27265227 70.038777,5.88779503 68.956003,7.15323157 C67.8732289,8.40109261 67.3154362,10.0004638 67.3154362,11.9513451 C67.3154362,13.919802 67.8732289,15.5367487 68.9888143,16.8021852 C70.1043997,18.0676218 71.4660701,18.70034 73.0902312,18.70034 C74.7636092,18.70034 76.158091,18.0851973 77.2572707,16.8197607 C78.3564504,15.5718997 78.9142431,13.9373775 78.9142431,11.9161941 C78.9142431,9.93016177 78.3564504,8.33079058 77.2572707,7.10050505 C76.1416853,5.88779503 74.7472036,5.27265227 73.0574198,5.27265227 L73.0574198,5.27265227 Z M78.6681581,0.579991749 L84,0.579991749 L84,23.340274 L78.6681581,23.340274 L78.6681581,20.9324295 C77.634601,21.9869599 76.5846383,22.7602823 75.5346756,23.2172455 C74.4847129,23.6917842 73.3527218,23.9202658 72.1222968,23.9202658 C69.3825503,23.9202658 67.0037286,22.7778578 65.0022371,20.4930418 C63.0007457,18.2082258 62,15.3785691 62,11.9864962 C62,8.47139464 62.9679344,5.5890114 64.9038031,3.33934644 C66.8396719,1.12483248 69.202088,0 71.9746458,0 C73.2542878,0 74.4519016,0.263632613 75.567487,0.773322332 C76.6830723,1.28301205 77.7166294,2.05633438 78.6681581,3.09328933 L78.6681581,0.579991749 L78.6681581,0.579991749 Z" id="Shape" fill-rule="nonzero"></path>
        </g>
    </g>
</svg>