<?xml version="1.0" encoding="UTF-8"?>
<svg width="56px" height="51px" viewBox="0 0 56 51" version="1.1" xmlns="http://www.w3.org/2000/svg" xmlns:xlink="http://www.w3.org/1999/xlink">
    <!-- Generator: Sketch 53.1 (72631) - https://sketchapp.com -->
    <desc>Created with Sketch.</desc>
    <defs>
        <linearGradient x1="0%" y1="8.52997449%" x2="100.567466%" y2="91.1229305%" id="linearGradient-1">
            <stop stop-color="#0034DA" offset="0%"></stop>
            <stop stop-color="#DB00FF" offset="100%"></stop>
        </linearGradient>
        <linearGradient x1="0%" y1="0.647242368%" x2="101.999998%" y2="100.339812%" id="linearGradient-2">
            <stop stop-color="#0034DA" offset="0%"></stop>
            <stop stop-color="#DB00FF" offset="98.5955564%"></stop>
        </linearGradient>
    </defs>
    <g id="Yura-agency" stroke="none" stroke-width="1" fill="none" fill-rule="evenodd">
        <g id="improve">
            <g id="Group">
                <path d="M50.1666667,0 L5.83333333,0 C2.618,0 0,2.601 0,5.79545455 L0,45.2045455 C0,48.399 2.618,51 5.83333333,51 L50.1666667,51 C53.382,51 56,48.399 56,45.2045455 L56,5.79545455 C56,2.601 53.382,0 50.1666667,0 Z M2.33333333,11.5909091 L53.6666667,11.5909091 L53.6666667,30.1363636 L43.9553333,30.1363636 L39.585,19.2733636 C39.396,18.8074091 38.934,18.5408182 38.423,18.5477727 C37.919,18.5825455 37.492,18.9372273 37.3706667,19.4240455 L33.6746667,34.1074091 L30.275,23.9746364 C30.1186667,23.5086818 29.6846667,23.1910909 29.19,23.1818182 C28.693,23.1725455 28.2496667,23.4739091 28.0746667,23.9329091 L22.5096667,38.6765455 L18.6433333,19.4750455 C18.543,18.972 18.1206667,18.5964545 17.6073333,18.5477727 C17.094,18.4990909 16.611,18.7981364 16.4173333,19.2733636 L12.0446667,30.1363636 L2.33333333,30.1363636 L2.33333333,11.5909091 Z M5.83333333,2.31818182 L50.1666667,2.31818182 C52.0963333,2.31818182 53.6666667,3.87831818 53.6666667,5.79545455 L53.6666667,9.27272727 L2.33333333,9.27272727 L2.33333333,5.79545455 C2.33333333,3.87831818 3.90366667,2.31818182 5.83333333,2.31818182 Z M50.1666667,48.6818182 L5.83333333,48.6818182 C3.90366667,48.6818182 2.33333333,47.1216818 2.33333333,45.2045455 L2.33333333,32.4545455 L12.8333333,32.4545455 C13.3116667,32.4545455 13.7386667,32.1647727 13.916,31.7266364 L17.1243333,23.7567273 L21.021,43.1158636 C21.1236667,43.6212273 21.553,44.0014091 22.071,44.0431364 C22.1036667,44.0454545 22.1363333,44.0454545 22.1666667,44.0454545 C22.6496667,44.0454545 23.0883333,43.7487273 23.2586667,43.2966818 L29.1013333,27.8158636 L32.7273333,38.6185909 C32.8906667,39.1077273 33.39,39.474 33.8776667,39.4090909 C34.3956667,39.3882273 34.839,39.0312273 34.965,38.5328182 L38.7566667,23.4646364 L42.084,31.7266364 C42.2613333,32.1647727 42.6883333,32.4545455 43.1666667,32.4545455 L53.6666667,32.4545455 L53.6666667,45.2045455 C53.6666667,47.1216818 52.0963333,48.6818182 50.1666667,48.6818182 Z" id="Shape" fill="url(#linearGradient-1)" fill-rule="nonzero"></path>
                <ellipse id="Oval" fill="url(#linearGradient-2)" cx="5.83333333" cy="5.79545455" rx="1.16666667" ry="1.15909091"></ellipse>
                <ellipse id="Oval" fill="url(#linearGradient-2)" cx="10.5" cy="5.79545455" rx="1.16666667" ry="1.15909091"></ellipse>
                <ellipse id="Oval" fill="url(#linearGradient-2)" cx="15.1666667" cy="5.79545455" rx="1.16666667" ry="1.15909091"></ellipse>
            </g>
        </g>
    </g>
</svg>